<svg xmlns="http://www.w3.org/2000/svg" xmlns:xlink="http://www.w3.org/1999/xlink" width="1763" zoomAndPan="magnify" viewBox="0 0 1322.25 401.249997" height="535" preserveAspectRatio="xMidYMid meet" version="1.0"><defs><g/><clipPath id="76684b4b2f"><path d="M 547 51 L 697 51 L 697 155 L 547 155 Z M 547 51 " clip-rule="nonzero"/></clipPath><clipPath id="8909248c71"><path d="M 528.710938 63.402344 L 665.191406 0.0507812 L 713.101562 103.261719 L 576.617188 166.613281 Z M 528.710938 63.402344 " clip-rule="nonzero"/></clipPath><clipPath id="c07cd8efa0"><path d="M 528.710938 63.402344 L 665.191406 0.0507812 L 713.101562 103.261719 L 576.617188 166.613281 Z M 528.710938 63.402344 " clip-rule="nonzero"/></clipPath></defs><g fill="#fffdf6" fill-opacity="1"><g transform="translate(203.190706, 279.805366)"><g><path d="M 55.5 0 L 55.5 -3.078125 C 55.5 -3.078125 54.617188 -3.441406 52.859375 -4.171875 C 51.109375 -4.898438 49.351562 -6.46875 47.59375 -8.875 C 45.84375 -11.289062 44.96875 -15.0625 44.96875 -20.1875 L 44.96875 -62.515625 L 86.859375 -62.515625 L 86.859375 -19.078125 C 86.859375 -14.253906 85.984375 -10.707031 84.234375 -8.4375 C 82.484375 -6.175781 80.726562 -4.71875 78.96875 -4.0625 C 77.21875 -3.40625 76.34375 -3.078125 76.34375 -3.078125 L 76.34375 0 L 131.609375 0 L 131.609375 -3.078125 C 131.609375 -3.078125 130.726562 -3.441406 128.96875 -4.171875 C 127.21875 -4.898438 125.46875 -6.46875 123.71875 -8.875 C 121.96875 -11.289062 121.09375 -15.0625 121.09375 -20.1875 L 121.09375 -108.578125 C 121.09375 -113.847656 121.96875 -117.6875 123.71875 -120.09375 C 125.46875 -122.507812 127.21875 -124.046875 128.96875 -124.703125 C 130.726562 -125.359375 131.609375 -125.6875 131.609375 -125.6875 L 131.609375 -128.765625 L 76.34375 -128.765625 L 76.34375 -125.6875 C 76.34375 -125.6875 77.21875 -125.320312 78.96875 -124.59375 C 80.726562 -123.863281 82.484375 -122.363281 84.234375 -120.09375 C 85.984375 -117.832031 86.859375 -114.363281 86.859375 -109.6875 L 86.859375 -68.21875 L 44.96875 -68.21875 L 44.96875 -108.578125 C 44.96875 -113.847656 45.84375 -117.6875 47.59375 -120.09375 C 49.351562 -122.507812 51.109375 -124.046875 52.859375 -124.703125 C 54.617188 -125.359375 55.5 -125.6875 55.5 -125.6875 L 55.5 -128.765625 L 0 -128.765625 L 0 -125.6875 C 0 -125.6875 0.875 -125.320312 2.625 -124.59375 C 4.382812 -123.863281 6.140625 -122.363281 7.890625 -120.09375 C 9.648438 -117.832031 10.53125 -114.363281 10.53125 -109.6875 L 10.53125 -19.078125 C 10.53125 -14.253906 9.648438 -10.707031 7.890625 -8.4375 C 6.140625 -6.175781 4.382812 -4.71875 2.625 -4.0625 C 0.875 -3.40625 0 -3.078125 0 -3.078125 L 0 0 Z M 55.5 0 "/></g></g></g><g fill="#fffdf6" fill-opacity="1"><g transform="translate(341.16948, 279.805366)"><g><path d="M 70.421875 -48.484375 C 75.390625 -48.484375 80.25 -48.921875 85 -49.796875 C 89.75 -50.671875 93.296875 -52.351562 95.640625 -54.84375 C 96.660156 -58.644531 96.625 -63.066406 95.53125 -68.109375 C 94.4375 -73.148438 92.171875 -78.007812 88.734375 -82.6875 C 85.296875 -87.375 80.613281 -91.253906 74.6875 -94.328125 C 68.769531 -97.398438 61.492188 -98.9375 52.859375 -98.9375 C 42.046875 -98.9375 32.6875 -96.703125 24.78125 -92.234375 C 16.882812 -87.773438 10.78125 -81.742188 6.46875 -74.140625 C 2.15625 -66.535156 0 -57.984375 0 -48.484375 C 0 -37.222656 2.445312 -28.007812 7.34375 -20.84375 C 12.25 -13.675781 19.085938 -8.410156 27.859375 -5.046875 C 36.628906 -1.679688 46.644531 0 57.90625 0 C 65.945312 0 72.160156 -0.910156 76.546875 -2.734375 C 80.941406 -4.566406 84.125 -6.578125 86.09375 -8.765625 C 88.070312 -10.960938 89.5 -12.71875 90.375 -14.03125 L 84.453125 -24.34375 C 83.722656 -22.59375 82.515625 -20.253906 80.828125 -17.328125 C 79.148438 -14.398438 76.554688 -11.800781 73.046875 -9.53125 C 69.535156 -7.269531 64.5625 -6.140625 58.125 -6.140625 C 51.101562 -5.992188 45.472656 -9.359375 41.234375 -16.234375 C 36.992188 -23.109375 34.875 -34.078125 34.875 -49.140625 C 34.875 -49.140625 36.039062 -49.101562 38.375 -49.03125 C 40.71875 -48.957031 43.753906 -48.882812 47.484375 -48.8125 C 51.210938 -48.738281 55.085938 -48.664062 59.109375 -48.59375 C 63.140625 -48.519531 66.910156 -48.484375 70.421875 -48.484375 Z M 52.640625 -92.34375 C 56.296875 -92.34375 59.332031 -91.132812 61.75 -88.71875 C 64.164062 -86.3125 65.921875 -83.351562 67.015625 -79.84375 C 68.109375 -76.332031 68.582031 -72.820312 68.4375 -69.3125 C 68.289062 -65.800781 67.484375 -62.835938 66.015625 -60.421875 C 64.554688 -58.015625 62.515625 -56.8125 59.890625 -56.8125 L 35.09375 -56.8125 C 35.09375 -67.195312 36.375 -75.710938 38.9375 -82.359375 C 41.5 -89.015625 46.066406 -92.34375 52.640625 -92.34375 Z M 52.640625 -92.34375 "/></g></g></g><g fill="#fffdf6" fill-opacity="1"><g transform="translate(442.295411, 279.805366)"><g><path d="M 45.1875 -90.8125 C 45.1875 -93.445312 45.1875 -95.566406 45.1875 -97.171875 C 45.1875 -98.785156 45.1875 -99.59375 45.1875 -99.59375 L 0.21875 -94.546875 L 0.21875 -91.25 C 0.21875 -91.25 1.09375 -90.921875 2.84375 -90.265625 C 4.601562 -89.609375 6.359375 -88.070312 8.109375 -85.65625 C 9.867188 -83.25 10.75 -79.410156 10.75 -74.140625 L 10.75 -19.515625 C 10.75 -14.253906 9.867188 -10.488281 8.109375 -8.21875 C 6.359375 -5.957031 4.566406 -4.535156 2.734375 -3.953125 C 0.910156 -3.367188 0 -3.078125 0 -3.078125 L 0 0 L 55.71875 0 L 55.71875 -3.078125 C 55.71875 -3.078125 54.835938 -3.40625 53.078125 -4.0625 C 51.328125 -4.71875 49.570312 -6.175781 47.8125 -8.4375 C 46.0625 -10.707031 45.1875 -14.253906 45.1875 -19.078125 C 45.1875 -19.078125 45.1875 -20.578125 45.1875 -23.578125 C 45.1875 -26.578125 45.1875 -30.453125 45.1875 -35.203125 C 45.1875 -39.960938 45.1875 -45.082031 45.1875 -50.5625 C 45.1875 -56.039062 45.1875 -61.265625 45.1875 -66.234375 C 45.1875 -71.210938 45.1875 -75.421875 45.1875 -78.859375 C 45.1875 -82.296875 45.1875 -84.304688 45.1875 -84.890625 C 53.082031 -89.128906 59.257812 -90.039062 63.71875 -87.625 C 68.1875 -85.21875 71.441406 -80.867188 73.484375 -74.578125 L 97.609375 -82.046875 C 96.296875 -86.867188 93.8125 -90.703125 90.15625 -93.546875 C 86.5 -96.398438 82.144531 -98.226562 77.09375 -99.03125 C 72.050781 -99.84375 66.75 -99.585938 61.1875 -98.265625 C 55.632812 -96.953125 50.300781 -94.46875 45.1875 -90.8125 Z M 45.1875 -90.8125 "/></g></g></g><g fill="#fffdf6" fill-opacity="1"><g transform="translate(544.518131, 279.805366)"><g><path d="M 60.984375 0 C 71.367188 0 79.847656 -1.425781 86.421875 -4.28125 C 93.003906 -7.132812 98.085938 -10.898438 101.671875 -15.578125 C 105.253906 -20.253906 107.738281 -25.441406 109.125 -31.140625 C 110.519531 -36.847656 111.21875 -42.554688 111.21875 -48.265625 C 111.21875 -58.054688 109.242188 -66.71875 105.296875 -74.25 C 101.347656 -81.78125 96.117188 -87.703125 89.609375 -92.015625 C 83.097656 -96.335938 75.96875 -98.457031 68.21875 -98.375 C 60.46875 -98.300781 52.71875 -95.488281 44.96875 -89.9375 L 44.96875 -101.34375 C 44.96875 -106.019531 45.003906 -110.441406 45.078125 -114.609375 C 45.148438 -118.773438 45.1875 -122.175781 45.1875 -124.8125 C 45.1875 -127.445312 45.1875 -128.765625 45.1875 -128.765625 L 0 -123.71875 L 0 -120.640625 C 0 -120.640625 0.875 -120.3125 2.625 -119.65625 C 4.382812 -119 6.140625 -117.460938 7.890625 -115.046875 C 9.648438 -112.640625 10.53125 -108.800781 10.53125 -103.53125 L 10.53125 -19.515625 C 10.53125 -14.253906 9.648438 -10.488281 7.890625 -8.21875 C 6.140625 -5.957031 4.382812 -4.535156 2.625 -3.953125 C 0.875 -3.367188 0 -3.078125 0 -3.078125 L 0 0 Z M 56.375 -6.359375 C 55.5 -6.359375 54.109375 -6.503906 52.203125 -6.796875 C 50.304688 -7.085938 48.625 -8.21875 47.15625 -10.1875 C 45.695312 -12.164062 44.96875 -15.71875 44.96875 -20.84375 L 44.96875 -84.015625 C 51.113281 -87.234375 56.195312 -88.472656 60.21875 -87.734375 C 64.238281 -87.003906 67.453125 -84.773438 69.859375 -81.046875 C 72.273438 -77.316406 73.957031 -72.632812 74.90625 -67 C 75.863281 -61.375 76.34375 -55.273438 76.34375 -48.703125 C 76.34375 -44.160156 76.046875 -39.40625 75.453125 -34.4375 C 74.867188 -29.46875 73.882812 -24.863281 72.5 -20.625 C 71.113281 -16.382812 69.101562 -12.945312 66.46875 -10.3125 C 63.832031 -7.675781 60.46875 -6.359375 56.375 -6.359375 Z M 56.375 -6.359375 "/></g></g></g><g fill="#fffdf6" fill-opacity="1"><g transform="translate(660.341336, 279.805366)"><g/></g></g><g fill="#fffdf6" fill-opacity="1"><g transform="translate(748.086167, 279.805366)"><g><path d="M 55.5 0 L 55.5 -3.078125 C 55.5 -3.078125 54.617188 -3.441406 52.859375 -4.171875 C 51.109375 -4.898438 49.351562 -6.46875 47.59375 -8.875 C 45.84375 -11.289062 44.96875 -15.0625 44.96875 -20.1875 L 44.96875 -62.515625 L 86.859375 -62.515625 L 86.859375 -19.078125 C 86.859375 -14.253906 85.984375 -10.707031 84.234375 -8.4375 C 82.484375 -6.175781 80.726562 -4.71875 78.96875 -4.0625 C 77.21875 -3.40625 76.34375 -3.078125 76.34375 -3.078125 L 76.34375 0 L 131.609375 0 L 131.609375 -3.078125 C 131.609375 -3.078125 130.726562 -3.441406 128.96875 -4.171875 C 127.21875 -4.898438 125.46875 -6.46875 123.71875 -8.875 C 121.96875 -11.289062 121.09375 -15.0625 121.09375 -20.1875 L 121.09375 -108.578125 C 121.09375 -113.847656 121.96875 -117.6875 123.71875 -120.09375 C 125.46875 -122.507812 127.21875 -124.046875 128.96875 -124.703125 C 130.726562 -125.359375 131.609375 -125.6875 131.609375 -125.6875 L 131.609375 -128.765625 L 76.34375 -128.765625 L 76.34375 -125.6875 C 76.34375 -125.6875 77.21875 -125.320312 78.96875 -124.59375 C 80.726562 -123.863281 82.484375 -122.363281 84.234375 -120.09375 C 85.984375 -117.832031 86.859375 -114.363281 86.859375 -109.6875 L 86.859375 -68.21875 L 44.96875 -68.21875 L 44.96875 -108.578125 C 44.96875 -113.847656 45.84375 -117.6875 47.59375 -120.09375 C 49.351562 -122.507812 51.109375 -124.046875 52.859375 -124.703125 C 54.617188 -125.359375 55.5 -125.6875 55.5 -125.6875 L 55.5 -128.765625 L 0 -128.765625 L 0 -125.6875 C 0 -125.6875 0.875 -125.320312 2.625 -124.59375 C 4.382812 -123.863281 6.140625 -122.363281 7.890625 -120.09375 C 9.648438 -117.832031 10.53125 -114.363281 10.53125 -109.6875 L 10.53125 -19.078125 C 10.53125 -14.253906 9.648438 -10.707031 7.890625 -8.4375 C 6.140625 -6.175781 4.382812 -4.71875 2.625 -4.0625 C 0.875 -3.40625 0 -3.078125 0 -3.078125 L 0 0 Z M 55.5 0 "/></g></g></g><g fill="#fffdf6" fill-opacity="1"><g transform="translate(886.064963, 279.805366)"><g><path d="M 68.21875 -33.34375 C 68.070312 -25.445312 67.453125 -19.046875 66.359375 -14.140625 C 65.265625 -9.242188 62.082031 -6.796875 56.8125 -6.796875 C 52.863281 -6.796875 50.082031 -8.1875 48.46875 -10.96875 C 46.863281 -13.75 45.878906 -17.113281 45.515625 -21.0625 C 45.148438 -25.007812 44.96875 -28.664062 44.96875 -32.03125 L 44.96875 -72.171875 C 44.96875 -76.847656 44.96875 -81.269531 44.96875 -85.4375 C 44.96875 -89.601562 44.96875 -93.003906 44.96875 -95.640625 C 44.96875 -98.273438 44.96875 -99.59375 44.96875 -99.59375 L 0 -94.546875 L 0 -91.25 C 0 -91.25 0.875 -90.921875 2.625 -90.265625 C 4.382812 -89.609375 6.140625 -88.070312 7.890625 -85.65625 C 9.648438 -83.25 10.53125 -79.410156 10.53125 -74.140625 L 10.53125 -36.859375 C 10.53125 -25.742188 14.003906 -16.820312 20.953125 -10.09375 C 27.898438 -3.363281 39.5625 0 55.9375 0 C 59.882812 0 64.632812 -0.363281 70.1875 -1.09375 C 75.75 -1.820312 82.039062 -2.296875 89.0625 -2.515625 C 96.082031 -2.742188 103.613281 -2.195312 111.65625 -0.875 L 111.65625 -4.171875 C 111.65625 -4.171875 110.882812 -4.5 109.34375 -5.15625 C 107.8125 -5.8125 106.273438 -7.34375 104.734375 -9.75 C 103.203125 -12.164062 102.4375 -16.007812 102.4375 -21.28125 L 102.4375 -72.171875 C 102.4375 -76.847656 102.472656 -81.269531 102.546875 -85.4375 C 102.617188 -89.601562 102.65625 -93.003906 102.65625 -95.640625 C 102.65625 -98.273438 102.65625 -99.59375 102.65625 -99.59375 L 57.6875 -94.546875 L 57.6875 -91.25 C 57.6875 -91.25 58.5625 -90.921875 60.3125 -90.265625 C 62.070312 -89.609375 63.828125 -88.070312 65.578125 -85.65625 C 67.335938 -83.25 68.21875 -79.410156 68.21875 -74.140625 Z M 68.21875 -33.34375 "/></g></g></g><g fill="#fffdf6" fill-opacity="1"><g transform="translate(1002.326893, 279.805366)"><g><path d="M 60.984375 0 C 71.367188 0 79.847656 -1.425781 86.421875 -4.28125 C 93.003906 -7.132812 98.085938 -10.898438 101.671875 -15.578125 C 105.253906 -20.253906 107.738281 -25.441406 109.125 -31.140625 C 110.519531 -36.847656 111.21875 -42.554688 111.21875 -48.265625 C 111.21875 -58.054688 109.242188 -66.71875 105.296875 -74.25 C 101.347656 -81.78125 96.117188 -87.703125 89.609375 -92.015625 C 83.097656 -96.335938 75.96875 -98.457031 68.21875 -98.375 C 60.46875 -98.300781 52.71875 -95.488281 44.96875 -89.9375 L 44.96875 -101.34375 C 44.96875 -106.019531 45.003906 -110.441406 45.078125 -114.609375 C 45.148438 -118.773438 45.1875 -122.175781 45.1875 -124.8125 C 45.1875 -127.445312 45.1875 -128.765625 45.1875 -128.765625 L 0 -123.71875 L 0 -120.640625 C 0 -120.640625 0.875 -120.3125 2.625 -119.65625 C 4.382812 -119 6.140625 -117.460938 7.890625 -115.046875 C 9.648438 -112.640625 10.53125 -108.800781 10.53125 -103.53125 L 10.53125 -19.515625 C 10.53125 -14.253906 9.648438 -10.488281 7.890625 -8.21875 C 6.140625 -5.957031 4.382812 -4.535156 2.625 -3.953125 C 0.875 -3.367188 0 -3.078125 0 -3.078125 L 0 0 Z M 56.375 -6.359375 C 55.5 -6.359375 54.109375 -6.503906 52.203125 -6.796875 C 50.304688 -7.085938 48.625 -8.21875 47.15625 -10.1875 C 45.695312 -12.164062 44.96875 -15.71875 44.96875 -20.84375 L 44.96875 -84.015625 C 51.113281 -87.234375 56.195312 -88.472656 60.21875 -87.734375 C 64.238281 -87.003906 67.453125 -84.773438 69.859375 -81.046875 C 72.273438 -77.316406 73.957031 -72.632812 74.90625 -67 C 75.863281 -61.375 76.34375 -55.273438 76.34375 -48.703125 C 76.34375 -44.160156 76.046875 -39.40625 75.453125 -34.4375 C 74.867188 -29.46875 73.882812 -24.863281 72.5 -20.625 C 71.113281 -16.382812 69.101562 -12.945312 66.46875 -10.3125 C 63.832031 -7.675781 60.46875 -6.359375 56.375 -6.359375 Z M 56.375 -6.359375 "/></g></g></g><g clip-path="url(#76684b4b2f)"><g clip-path="url(#8909248c71)"><g clip-path="url(#c07cd8efa0)"><path fill="#fffdf6" d="M 684.550781 97.011719 C 689.480469 88.503906 693 79.171875 695.898438 69.75 C 696.46875 67.996094 695.441406 66.609375 693.640625 66.347656 C 692.429688 66.175781 691.527344 66.042969 690.273438 66.164062 C 681.152344 65.445312 671.675781 64.988281 662.640625 65.828125 C 661.089844 65.910156 659.542969 65.988281 657.941406 66.371094 C 647.304688 67.589844 636.367188 68.757812 626.28125 72.523438 C 619.472656 74.90625 612.703125 79.15625 608.203125 84.652344 C 604.878906 88.476562 602.976562 93.121094 602.273438 97.9375 C 601.652344 102.15625 600.773438 108.175781 602.660156 112.148438 C 602.574219 112.742188 602.484375 113.347656 602.140625 113.601562 C 598.941406 116.527344 595.964844 120.089844 592.851562 124.558594 C 592.421875 125.421875 591.988281 126.28125 591.507812 127.441406 C 591.460938 127.738281 591.121094 127.992188 591.03125 128.601562 C 590.816406 127.953125 590.65625 127.007812 590.441406 126.359375 C 590.265625 125.410156 589.835938 124.117188 589.671875 123.171875 C 589.242188 121.878906 588.554688 120.238281 588.773438 118.730469 C 588.691406 117.183594 589.863281 115.507812 590.082031 114.003906 C 593.167969 103.378906 593.507812 92.65625 591.128906 81.546875 C 589.6875 74.566406 586.21875 68.832031 580.710938 64.335938 C 575.214844 59.839844 569.242188 56.507812 562.871094 53.734375 C 561.160156 52.867188 559.398438 52.304688 557.675781 51.441406 C 556.21875 50.914062 554.917969 51.347656 554.699219 52.855469 C 552.996094 60.289062 551.042969 67.394531 549.339844 74.832031 C 547.644531 82.273438 546.539062 89.804688 547.558594 97.648438 C 548.230469 103.589844 550.183594 109.105469 555.132812 113.207031 C 559.765625 117.265625 565.226562 119.90625 570.859375 121.347656 C 575.292969 122.613281 579.808594 123.277344 584.164062 122.980469 C 584.753906 125.21875 585.351562 127.464844 585.296875 129.917969 C 585.335938 131.765625 585.375 133.621094 585.414062 135.46875 C 585.140625 141.578125 582.976562 143.734375 582.097656 149.753906 C 581.789062 151.867188 582.472656 153.5 583.589844 154.28125 C 584.707031 155.058594 586.5625 155.019531 588.246094 154.035156 C 590.617188 152.53125 591.574219 150.210938 592.265625 147.546875 C 592.921875 145.175781 592.535156 145.742188 593.183594 143.375 C 594.746094 136.832031 597.480469 130.769531 601.375 125.183594 C 603.316406 122.398438 605.820312 119.988281 608.328125 117.589844 C 610.832031 115.179688 613.554688 113.429688 616.046875 111.023438 C 618.898438 108.359375 622.65625 105.828125 626.066406 103.5625 C 632.921875 98.71875 639.699219 94.476562 647.066406 90.320312 C 654.09375 86.417969 661.421875 82.570312 668.96875 79.367188 C 659.046875 86.21875 647.832031 93.511719 636.828125 101.441406 C 626.863281 108.601562 609.722656 124.863281 606.53125 127.785156 C 606.183594 128.042969 606.449219 128.386719 606.746094 128.429688 C 607.351562 128.519531 607.902344 128.90625 608.511719 128.996094 C 611.78125 129.777344 614.796875 130.21875 618.113281 130.707031 C 622.324219 131.316406 626.542969 131.9375 630.796875 132.25 C 643.886719 133.234375 655.480469 129.695312 665.316406 121.285156 C 673.167969 113.816406 679.570312 105.832031 684.550781 97.011719 " fill-opacity="1" fill-rule="nonzero"/></g></g></g></svg>