<!DOCTYPE svg PUBLIC "-//W3C//DTD SVG 1.1//EN" "http://www.w3.org/Graphics/SVG/1.1/DTD/svg11.dtd">
<!-- Uploaded to: SVG Repo, www.svgrepo.com, Transformed by: SVG Repo Mixer Tools -->
<svg version="1.1" id="Uploaded to svgrepo.com" xmlns="http://www.w3.org/2000/svg" xmlns:xlink="http://www.w3.org/1999/xlink" width="800px" height="800px" viewBox="0 0 32 32" xml:space="preserve" fill="#000000">
<g id="SVGRepo_bgCarrier" stroke-width="0"/>
<g id="SVGRepo_tracerCarrier" stroke-linecap="round" stroke-linejoin="round"/>
<g id="SVGRepo_iconCarrier"> <style type="text/css"> .linesandangles_een{fill:#ffffff;} </style> <path class="linesandangles_een" d="M26,19c0-5.523-4.477-10-10-10V8h-1V5h-5v3H9v5h1v9h5v-9h1v-2c4.411,0,8,3.589,8,8s-3.589,8-8,8 v-1h1v-2H8v2h1v3h7h10v-2h-4.018C24.417,25.176,26,22.277,26,19z M13,20h-1v-6h1V20z M14,11h-3v-1h3V11z M12,7h1v1h-1V7z M14,27h-3 v-1h3V27z"/> </g>
</svg>